# xmcd
#
# Track frame offsets: 
#        150
#        15480
#        30769
#
# Disc length: 607 seconds
#
# Revision: 0
# Processed by: cddbd v1.5.2PL0 Copyright (c) Steve Scherf et al.
# Submitted via: ExactAudioCopy v0.95b3
#
DISCID=0f025d03
DTITLE=Milo Greene - The Civil Wars EP
DYEAR=2011
DGENRE=Bluegrass
TTITLE0=1957
TTITLE1=Silent Way
TTITLE2=Don't You Give Up On Me
EXTD=
EXTT0=
EXTT1=
EXTT2=
PLAYORDER=
